ISO-10303-21;
HEADER;
/* Generated by software containing ST-Developer
 * from STEP Tools, Inc. (www.steptools.com) 
 */

FILE_DESCRIPTION(
/* description */ (''),
/* implementation_level */ '2;1');

FILE_NAME(
/* name */ 'head_cam_mount_d435i.step',
/* time_stamp */ '2026-10-04T09:41:25+09:00',
/* author */ (''),
/* organization */ (''),
/* preprocessor_version */ 'ST-DEVELOPER v20.2',
/* originating_system */ 'Autodesk Translation Framework v15.15.0.0',
/* authorisation */ '');

FILE_SCHEMA (('AUTOMOTIVE_DESIGN { 1 0 10303 214 3 1 1 }'));
ENDSEC;

DATA;
#10=MECHANICAL_DESIGN_GEOMETRIC_PRESENTATION_REPRESENTATION('',(#13),#1190);
#11=SHAPE_REPRESENTATION_RELATIONSHIP('SRR','None',#1197,#12);
#12=ADVANCED_BREP_SHAPE_REPRESENTATION('',(#14),#1189);
#13=STYLED_ITEM('',(#1207),#14);
#14=MANIFOLD_SOLID_BREP('head_cam_mount_d435i',#664);
#15=FACE_BOUND('',#202,.T.);
#16=FACE_BOUND('',#203,.T.);
#17=FACE_BOUND('',#204,.T.);
#18=FACE_BOUND('',#205,.T.);
#19=FACE_BOUND('',#206,.T.);
#20=FACE_BOUND('',#208,.T.);
#21=FACE_BOUND('',#212,.T.);
#22=FACE_BOUND('',#213,.T.);
#23=FACE_BOUND('',#222,.T.);
#24=FACE_BOUND('',#225,.T.);
#25=FACE_BOUND('',#229,.T.);
#26=FACE_BOUND('',#233,.T.);
#27=FACE_BOUND('',#237,.T.);
#28=FACE_BOUND('',#242,.T.);
#29=FACE_BOUND('',#243,.T.);
#30=FACE_BOUND('',#244,.T.);
#31=FACE_BOUND('',#245,.T.);
#32=FACE_BOUND('',#246,.T.);
#33=FACE_BOUND('',#248,.T.);
#34=CYLINDRICAL_SURFACE('',#683,2.);
#35=CYLINDRICAL_SURFACE('',#685,18.);
#36=CYLINDRICAL_SURFACE('',#688,2.);
#37=CYLINDRICAL_SURFACE('',#693,1.);
#38=CYLINDRICAL_SURFACE('',#695,4.);
#39=CYLINDRICAL_SURFACE('',#707,3.);
#40=CYLINDRICAL_SURFACE('',#716,3.);
#41=CYLINDRICAL_SURFACE('',#719,3.);
#42=CYLINDRICAL_SURFACE('',#721,3.);
#43=CYLINDRICAL_SURFACE('',#722,1.7);
#44=CYLINDRICAL_SURFACE('',#723,1.7);
#45=CYLINDRICAL_SURFACE('',#727,3.);
#46=CYLINDRICAL_SURFACE('',#732,3.);
#47=CYLINDRICAL_SURFACE('',#733,1.6);
#48=CYLINDRICAL_SURFACE('',#738,3.);
#49=CYLINDRICAL_SURFACE('',#739,1.6);
#50=CYLINDRICAL_SURFACE('',#744,3.);
#51=CYLINDRICAL_SURFACE('',#745,1.6);
#52=CYLINDRICAL_SURFACE('',#750,3.);
#53=CYLINDRICAL_SURFACE('',#751,1.6);
#54=CYLINDRICAL_SURFACE('',#753,9.5);
#55=LINE('',#1017,#98);
#56=LINE('',#1019,#99);
#57=LINE('',#1020,#100);
#58=LINE('',#1023,#101);
#59=LINE('',#1026,#102);
#60=LINE('',#1030,#103);
#61=LINE('',#1032,#104);
#62=LINE('',#1036,#105);
#63=LINE('',#1042,#106);
#64=LINE('',#1044,#107);
#65=LINE('',#1046,#108);
#66=LINE('',#1048,#109);
#67=LINE('',#1050,#110);
#68=LINE('',#1053,#111);
#69=LINE('',#1057,#112);
#70=LINE('',#1062,#113);
#71=LINE('',#1063,#114);
#72=LINE('',#1065,#115);
#73=LINE('',#1078,#116);
#74=LINE('',#1082,#117);
#75=LINE('',#1090,#118);
#76=LINE('',#1091,#119);
#77=LINE('',#1094,#120);
#78=LINE('',#1095,#121);
#79=LINE('',#1098,#122);
#80=LINE('',#1102,#123);
#81=LINE('',#1111,#124);
#82=LINE('',#1114,#125);
#83=LINE('',#1117,#126);
#84=LINE('',#1118,#127);
#85=LINE('',#1123,#128);
#86=LINE('',#1126,#129);
#87=LINE('',#1129,#130);
#88=LINE('',#1133,#131);
#89=LINE('',#1141,#132);
#90=LINE('',#1144,#133);
#91=LINE('',#1152,#134);
#92=LINE('',#1155,#135);
#93=LINE('',#1163,#136);
#94=LINE('',#1166,#137);
#95=LINE('',#1174,#138);
#96=LINE('',#1177,#139);
#97=LINE('',#1183,#140);
#98=VECTOR('',#770,10.);
#99=VECTOR('',#771,10.);
#100=VECTOR('',#772,10.);
#101=VECTOR('',#775,10.);
#102=VECTOR('',#778,10.);
#103=VECTOR('',#783,18.);
#104=VECTOR('',#784,10.);
#105=VECTOR('',#789,10.);
#106=VECTOR('',#796,10.);
#107=VECTOR('',#797,10.);
#108=VECTOR('',#798,10.);
#109=VECTOR('',#799,10.);
#110=VECTOR('',#800,10.);
#111=VECTOR('',#803,10.);
#112=VECTOR('',#808,10.);
#113=VECTOR('',#813,10.);
#114=VECTOR('',#814,10.);
#115=VECTOR('',#817,10.);
#116=VECTOR('',#830,10.);
#117=VECTOR('',#833,10.);
#118=VECTOR('',#842,10.);
#119=VECTOR('',#843,10.);
#120=VECTOR('',#846,10.);
#121=VECTOR('',#847,10.);
#122=VECTOR('',#850,10.);
#123=VECTOR('',#853,10.);
#124=VECTOR('',#864,10.);
#125=VECTOR('',#867,10.);
#126=VECTOR('',#870,10.);
#127=VECTOR('',#871,10.);
#128=VECTOR('',#880,1.7);
#129=VECTOR('',#883,1.7);
#130=VECTOR('',#888,10.);
#131=VECTOR('',#893,3.);
#132=VECTOR('',#904,3.);
#133=VECTOR('',#907,1.6);
#134=VECTOR('',#918,3.);
#135=VECTOR('',#921,1.6);
#136=VECTOR('',#932,3.);
#137=VECTOR('',#935,1.6);
#138=VECTOR('',#946,3.);
#139=VECTOR('',#949,1.6);
#140=VECTOR('',#956,9.5);
#141=PLANE('',#682);
#142=PLANE('',#690);
#143=PLANE('',#697);
#144=PLANE('',#703);
#145=PLANE('',#709);
#146=PLANE('',#710);
#147=PLANE('',#718);
#148=PLANE('',#725);
#149=PLANE('',#726);
#150=PLANE('',#729);
#151=PLANE('',#735);
#152=PLANE('',#741);
#153=PLANE('',#747);
#154=PLANE('',#756);
#155=PLANE('',#757);
#156=FACE_OUTER_BOUND('',#193,.T.);
#157=FACE_OUTER_BOUND('',#194,.T.);
#158=FACE_OUTER_BOUND('',#195,.T.);
#159=FACE_OUTER_BOUND('',#196,.T.);
#160=FACE_OUTER_BOUND('',#197,.T.);
#161=FACE_OUTER_BOUND('',#198,.T.);
#162=FACE_OUTER_BOUND('',#199,.T.);
#163=FACE_OUTER_BOUND('',#200,.T.);
#164=FACE_OUTER_BOUND('',#201,.T.);
#165=FACE_OUTER_BOUND('',#207,.T.);
#166=FACE_OUTER_BOUND('',#209,.T.);
#167=FACE_OUTER_BOUND('',#210,.T.);
#168=FACE_OUTER_BOUND('',#211,.T.);
#169=FACE_OUTER_BOUND('',#214,.T.);
#170=FACE_OUTER_BOUND('',#215,.T.);
#171=FACE_OUTER_BOUND('',#216,.T.);
#172=FACE_OUTER_BOUND('',#217,.T.);
#173=FACE_OUTER_BOUND('',#218,.T.);
#174=FACE_OUTER_BOUND('',#219,.T.);
#175=FACE_OUTER_BOUND('',#220,.T.);
#176=FACE_OUTER_BOUND('',#221,.T.);
#177=FACE_OUTER_BOUND('',#223,.T.);
#178=FACE_OUTER_BOUND('',#224,.T.);
#179=FACE_OUTER_BOUND('',#226,.T.);
#180=FACE_OUTER_BOUND('',#227,.T.);
#181=FACE_OUTER_BOUND('',#228,.T.);
#182=FACE_OUTER_BOUND('',#230,.T.);
#183=FACE_OUTER_BOUND('',#231,.T.);
#184=FACE_OUTER_BOUND('',#232,.T.);
#185=FACE_OUTER_BOUND('',#234,.T.);
#186=FACE_OUTER_BOUND('',#235,.T.);
#187=FACE_OUTER_BOUND('',#236,.T.);
#188=FACE_OUTER_BOUND('',#238,.T.);
#189=FACE_OUTER_BOUND('',#239,.T.);
#190=FACE_OUTER_BOUND('',#240,.T.);
#191=FACE_OUTER_BOUND('',#241,.T.);
#192=FACE_OUTER_BOUND('',#247,.T.);
#193=EDGE_LOOP('',(#446,#447,#448,#449,#450,#451,#452));
#194=EDGE_LOOP('',(#453,#454,#455,#456));
#195=EDGE_LOOP('',(#457,#458,#459,#460));
#196=EDGE_LOOP('',(#461,#462,#463,#464,#465,#466,#467,#468));
#197=EDGE_LOOP('',(#469,#470,#471,#472));
#198=EDGE_LOOP('',(#473,#474,#475,#476,#477,#478,#479,#480,#481,#482,#483));
#199=EDGE_LOOP('',(#484,#485,#486,#487));
#200=EDGE_LOOP('',(#488,#489,#490,#491));
#201=EDGE_LOOP('',(#492,#493,#494,#495,#496,#497));
#202=EDGE_LOOP('',(#498));
#203=EDGE_LOOP('',(#499));
#204=EDGE_LOOP('',(#500));
#205=EDGE_LOOP('',(#501));
#206=EDGE_LOOP('',(#502));
#207=EDGE_LOOP('',(#503,#504,#505,#506,#507,#508));
#208=EDGE_LOOP('',(#509));
#209=EDGE_LOOP('',(#510,#511,#512,#513));
#210=EDGE_LOOP('',(#514,#515,#516,#517));
#211=EDGE_LOOP('',(#518,#519,#520,#521,#522,#523,#524,#525));
#212=EDGE_LOOP('',(#526));
#213=EDGE_LOOP('',(#527));
#214=EDGE_LOOP('',(#528,#529,#530,#531));
#215=EDGE_LOOP('',(#532,#533,#534,#535));
#216=EDGE_LOOP('',(#536,#537,#538,#539));
#217=EDGE_LOOP('',(#540,#541,#542,#543));
#218=EDGE_LOOP('',(#544,#545,#546,#547));
#219=EDGE_LOOP('',(#548,#549,#550,#551));
#220=EDGE_LOOP('',(#552,#553,#554,#555,#556,#557,#558,#559,#560,#561,#562));
#221=EDGE_LOOP('',(#563,#564,#565,#566,#567,#568));
#222=EDGE_LOOP('',(#569));
#223=EDGE_LOOP('',(#570,#571,#572,#573));
#224=EDGE_LOOP('',(#574));
#225=EDGE_LOOP('',(#575));
#226=EDGE_LOOP('',(#576,#577,#578,#579));
#227=EDGE_LOOP('',(#580,#581,#582,#583));
#228=EDGE_LOOP('',(#584));
#229=EDGE_LOOP('',(#585));
#230=EDGE_LOOP('',(#586,#587,#588,#589));
#231=EDGE_LOOP('',(#590,#591,#592,#593));
#232=EDGE_LOOP('',(#594));
#233=EDGE_LOOP('',(#595));
#234=EDGE_LOOP('',(#596,#597,#598,#599));
#235=EDGE_LOOP('',(#600,#601,#602,#603));
#236=EDGE_LOOP('',(#604));
#237=EDGE_LOOP('',(#605));
#238=EDGE_LOOP('',(#606,#607,#608,#609));
#239=EDGE_LOOP('',(#610,#611,#612,#613));
#240=EDGE_LOOP('',(#614,#615,#616,#617));
#241=EDGE_LOOP('',(#618));
#242=EDGE_LOOP('',(#619));
#243=EDGE_LOOP('',(#620));
#244=EDGE_LOOP('',(#621));
#245=EDGE_LOOP('',(#622));
#246=EDGE_LOOP('',(#623));
#247=EDGE_LOOP('',(#624));
#248=EDGE_LOOP('',(#625));
#249=CIRCLE('',#679,18.);
#250=CIRCLE('',#680,18.);
#251=CIRCLE('',#681,22.);
#252=CIRCLE('',#684,2.);
#253=CIRCLE('',#686,18.);
#254=CIRCLE('',#687,18.);
#255=CIRCLE('',#689,2.);
#256=CIRCLE('',#691,1.);
#257=CIRCLE('',#692,4.);
#258=CIRCLE('',#694,1.);
#259=CIRCLE('',#696,4.);
#260=CIRCLE('',#698,3.);
#261=CIRCLE('',#699,3.);
#262=CIRCLE('',#700,3.);
#263=CIRCLE('',#701,3.);
#264=CIRCLE('',#702,3.);
#265=CIRCLE('',#704,3.);
#266=CIRCLE('',#705,3.);
#267=CIRCLE('',#706,1.7);
#268=CIRCLE('',#708,3.);
#269=CIRCLE('',#711,3.);
#270=CIRCLE('',#712,3.);
#271=CIRCLE('',#713,3.);
#272=CIRCLE('',#714,1.7);
#273=CIRCLE('',#715,1.7);
#274=CIRCLE('',#717,3.);
#275=CIRCLE('',#720,3.);
#276=CIRCLE('',#724,1.7);
#277=CIRCLE('',#728,3.);
#278=CIRCLE('',#730,3.);
#279=CIRCLE('',#731,1.6);
#280=CIRCLE('',#734,1.6);
#281=CIRCLE('',#736,3.);
#282=CIRCLE('',#737,1.6);
#283=CIRCLE('',#740,1.6);
#284=CIRCLE('',#742,3.);
#285=CIRCLE('',#743,1.6);
#286=CIRCLE('',#746,1.6);
#287=CIRCLE('',#748,3.);
#288=CIRCLE('',#749,1.6);
#289=CIRCLE('',#752,1.6);
#290=CIRCLE('',#754,9.5);
#291=CIRCLE('',#755,9.5);
#292=B_SPLINE_CURVE_WITH_KNOTS('',3,(#967,#968,#969,#970,#971,#972,#973,
#974),.UNSPECIFIED.,.F.,.F.,(4,2,2,4),(1.51093102768956,1.58280715119246,
1.77170176558539,1.77276702666623),.UNSPECIFIED.);
#293=B_SPLINE_CURVE_WITH_KNOTS('',3,(#980,#981,#982,#983,#984,#985,#986,
#987),.UNSPECIFIED.,.F.,.F.,(4,2,2,4),(-0.00106526108078088,0.,0.188894614351501,
0.260770737835046),.UNSPECIFIED.);
#294=B_SPLINE_CURVE_WITH_KNOTS('',3,(#989,#990,#991,#992,#993,#994,#995,
#996,#997,#998,#999,#1000),.UNSPECIFIED.,.F.,.F.,(4,2,2,2,2,4),(1.54144036574078,
1.61876293930987,1.71173814136718,1.80471334342449,1.90244138874535,2.00016943406621),
 .UNSPECIFIED.);
#295=B_SPLINE_CURVE_WITH_KNOTS('',3,(#1003,#1004,#1005,#1006,#1007,#1008,
#1009,#1010,#1011,#1012,#1013,#1014),.UNSPECIFIED.,.F.,.F.,(4,2,2,2,2,4),
(0.646237280893167,0.743965326214027,0.841693371534887,0.934668573592197,
1.02764377564951,1.10496634921854),.UNSPECIFIED.);
#296=VERTEX_POINT('',#965);
#297=VERTEX_POINT('',#966);
#298=VERTEX_POINT('',#975);
#299=VERTEX_POINT('',#977);
#300=VERTEX_POINT('',#979);
#301=VERTEX_POINT('',#988);
#302=VERTEX_POINT('',#1001);
#303=VERTEX_POINT('',#1016);
#304=VERTEX_POINT('',#1018);
#305=VERTEX_POINT('',#1022);
#306=VERTEX_POINT('',#1024);
#307=VERTEX_POINT('',#1028);
#308=VERTEX_POINT('',#1031);
#309=VERTEX_POINT('',#1035);
#310=VERTEX_POINT('',#1039);
#311=VERTEX_POINT('',#1041);
#312=VERTEX_POINT('',#1043);
#313=VERTEX_POINT('',#1045);
#314=VERTEX_POINT('',#1047);
#315=VERTEX_POINT('',#1049);
#316=VERTEX_POINT('',#1051);
#317=VERTEX_POINT('',#1055);
#318=VERTEX_POINT('',#1059);
#319=VERTEX_POINT('',#1060);
#320=VERTEX_POINT('',#1066);
#321=VERTEX_POINT('',#1068);
#322=VERTEX_POINT('',#1070);
#323=VERTEX_POINT('',#1072);
#324=VERTEX_POINT('',#1074);
#325=VERTEX_POINT('',#1077);
#326=VERTEX_POINT('',#1079);
#327=VERTEX_POINT('',#1081);
#328=VERTEX_POINT('',#1084);
#329=VERTEX_POINT('',#1087);
#330=VERTEX_POINT('',#1088);
#331=VERTEX_POINT('',#1093);
#332=VERTEX_POINT('',#1097);
#333=VERTEX_POINT('',#1099);
#334=VERTEX_POINT('',#1101);
#335=VERTEX_POINT('',#1105);
#336=VERTEX_POINT('',#1107);
#337=VERTEX_POINT('',#1110);
#338=VERTEX_POINT('',#1112);
#339=VERTEX_POINT('',#1116);
#340=VERTEX_POINT('',#1125);
#341=VERTEX_POINT('',#1132);
#342=VERTEX_POINT('',#1136);
#343=VERTEX_POINT('',#1138);
#344=VERTEX_POINT('',#1143);
#345=VERTEX_POINT('',#1147);
#346=VERTEX_POINT('',#1149);
#347=VERTEX_POINT('',#1154);
#348=VERTEX_POINT('',#1158);
#349=VERTEX_POINT('',#1160);
#350=VERTEX_POINT('',#1165);
#351=VERTEX_POINT('',#1169);
#352=VERTEX_POINT('',#1171);
#353=VERTEX_POINT('',#1176);
#354=VERTEX_POINT('',#1180);
#355=VERTEX_POINT('',#1182);
#356=EDGE_CURVE('',#296,#297,#292,.F.);
#357=EDGE_CURVE('',#296,#298,#249,.T.);
#358=EDGE_CURVE('',#298,#299,#250,.T.);
#359=EDGE_CURVE('',#299,#300,#293,.T.);
#360=EDGE_CURVE('',#300,#301,#294,.T.);
#361=EDGE_CURVE('',#301,#302,#251,.T.);
#362=EDGE_CURVE('',#297,#302,#295,.F.);
#363=EDGE_CURVE('',#303,#301,#55,.T.);
#364=EDGE_CURVE('',#304,#303,#56,.T.);
#365=EDGE_CURVE('',#302,#304,#57,.T.);
#366=EDGE_CURVE('',#305,#299,#58,.T.);
#367=EDGE_CURVE('',#305,#306,#252,.T.);
#368=EDGE_CURVE('',#306,#300,#59,.T.);
#369=EDGE_CURVE('',#307,#307,#253,.T.);
#370=EDGE_CURVE('',#307,#298,#60,.T.);
#371=EDGE_CURVE('',#296,#308,#61,.T.);
#372=EDGE_CURVE('',#305,#308,#254,.T.);
#373=EDGE_CURVE('',#297,#309,#62,.F.);
#374=EDGE_CURVE('',#309,#308,#255,.T.);
#375=EDGE_CURVE('',#310,#304,#256,.T.);
#376=EDGE_CURVE('',#310,#311,#63,.T.);
#377=EDGE_CURVE('',#312,#311,#64,.T.);
#378=EDGE_CURVE('',#313,#312,#65,.T.);
#379=EDGE_CURVE('',#314,#313,#66,.T.);
#380=EDGE_CURVE('',#314,#315,#67,.T.);
#381=EDGE_CURVE('',#316,#315,#257,.T.);
#382=EDGE_CURVE('',#316,#309,#68,.T.);
#383=EDGE_CURVE('',#303,#317,#258,.T.);
#384=EDGE_CURVE('',#317,#310,#69,.T.);
#385=EDGE_CURVE('',#318,#319,#259,.T.);
#386=EDGE_CURVE('',#319,#316,#70,.T.);
#387=EDGE_CURVE('',#315,#318,#71,.T.);
#388=EDGE_CURVE('',#306,#319,#72,.T.);
#389=EDGE_CURVE('',#320,#320,#260,.T.);
#390=EDGE_CURVE('',#321,#321,#261,.T.);
#391=EDGE_CURVE('',#322,#322,#262,.T.);
#392=EDGE_CURVE('',#323,#323,#263,.T.);
#393=EDGE_CURVE('',#324,#324,#264,.T.);
#394=EDGE_CURVE('',#325,#317,#73,.T.);
#395=EDGE_CURVE('',#326,#325,#265,.T.);
#396=EDGE_CURVE('',#327,#326,#74,.T.);
#397=EDGE_CURVE('',#311,#327,#266,.T.);
#398=EDGE_CURVE('',#328,#328,#267,.T.);
#399=EDGE_CURVE('',#329,#330,#268,.T.);
#400=EDGE_CURVE('',#330,#326,#75,.T.);
#401=EDGE_CURVE('',#325,#329,#76,.T.);
#402=EDGE_CURVE('',#331,#330,#77,.T.);
#403=EDGE_CURVE('',#327,#331,#78,.T.);
#404=EDGE_CURVE('',#329,#332,#79,.T.);
#405=EDGE_CURVE('',#333,#332,#269,.T.);
#406=EDGE_CURVE('',#333,#334,#80,.T.);
#407=EDGE_CURVE('',#313,#334,#270,.T.);
#408=EDGE_CURVE('',#331,#312,#271,.T.);
#409=EDGE_CURVE('',#335,#335,#272,.T.);
#410=EDGE_CURVE('',#336,#336,#273,.T.);
#411=EDGE_CURVE('',#332,#337,#81,.T.);
#412=EDGE_CURVE('',#337,#338,#274,.T.);
#413=EDGE_CURVE('',#338,#333,#82,.T.);
#414=EDGE_CURVE('',#338,#339,#83,.T.);
#415=EDGE_CURVE('',#334,#339,#84,.T.);
#416=EDGE_CURVE('',#339,#314,#275,.T.);
#417=EDGE_CURVE('',#336,#328,#85,.T.);
#418=EDGE_CURVE('',#335,#340,#86,.T.);
#419=EDGE_CURVE('',#340,#340,#276,.T.);
#420=EDGE_CURVE('',#318,#337,#87,.T.);
#421=EDGE_CURVE('',#324,#341,#88,.T.);
#422=EDGE_CURVE('',#341,#341,#277,.T.);
#423=EDGE_CURVE('',#342,#342,#278,.T.);
#424=EDGE_CURVE('',#343,#343,#279,.T.);
#425=EDGE_CURVE('',#323,#342,#89,.T.);
#426=EDGE_CURVE('',#343,#344,#90,.T.);
#427=EDGE_CURVE('',#344,#344,#280,.T.);
#428=EDGE_CURVE('',#345,#345,#281,.T.);
#429=EDGE_CURVE('',#346,#346,#282,.T.);
#430=EDGE_CURVE('',#322,#345,#91,.T.);
#431=EDGE_CURVE('',#346,#347,#92,.T.);
#432=EDGE_CURVE('',#347,#347,#283,.T.);
#433=EDGE_CURVE('',#348,#348,#284,.T.);
#434=EDGE_CURVE('',#349,#349,#285,.T.);
#435=EDGE_CURVE('',#321,#348,#93,.T.);
#436=EDGE_CURVE('',#349,#350,#94,.T.);
#437=EDGE_CURVE('',#350,#350,#286,.T.);
#438=EDGE_CURVE('',#351,#351,#287,.T.);
#439=EDGE_CURVE('',#352,#352,#288,.T.);
#440=EDGE_CURVE('',#320,#351,#95,.T.);
#441=EDGE_CURVE('',#352,#353,#96,.T.);
#442=EDGE_CURVE('',#353,#353,#289,.T.);
#443=EDGE_CURVE('',#354,#354,#290,.T.);
#444=EDGE_CURVE('',#354,#355,#97,.T.);
#445=EDGE_CURVE('',#355,#355,#291,.T.);
#446=ORIENTED_EDGE('',*,*,#356,.F.);
#447=ORIENTED_EDGE('',*,*,#357,.T.);
#448=ORIENTED_EDGE('',*,*,#358,.T.);
#449=ORIENTED_EDGE('',*,*,#359,.T.);
#450=ORIENTED_EDGE('',*,*,#360,.T.);
#451=ORIENTED_EDGE('',*,*,#361,.T.);
#452=ORIENTED_EDGE('',*,*,#362,.F.);
#453=ORIENTED_EDGE('',*,*,#361,.F.);
#454=ORIENTED_EDGE('',*,*,#363,.F.);
#455=ORIENTED_EDGE('',*,*,#364,.F.);
#456=ORIENTED_EDGE('',*,*,#365,.F.);
#457=ORIENTED_EDGE('',*,*,#366,.F.);
#458=ORIENTED_EDGE('',*,*,#367,.T.);
#459=ORIENTED_EDGE('',*,*,#368,.T.);
#460=ORIENTED_EDGE('',*,*,#359,.F.);
#461=ORIENTED_EDGE('',*,*,#369,.F.);
#462=ORIENTED_EDGE('',*,*,#370,.T.);
#463=ORIENTED_EDGE('',*,*,#357,.F.);
#464=ORIENTED_EDGE('',*,*,#371,.T.);
#465=ORIENTED_EDGE('',*,*,#372,.F.);
#466=ORIENTED_EDGE('',*,*,#366,.T.);
#467=ORIENTED_EDGE('',*,*,#358,.F.);
#468=ORIENTED_EDGE('',*,*,#370,.F.);
#469=ORIENTED_EDGE('',*,*,#373,.T.);
#470=ORIENTED_EDGE('',*,*,#374,.T.);
#471=ORIENTED_EDGE('',*,*,#371,.F.);
#472=ORIENTED_EDGE('',*,*,#356,.T.);
#473=ORIENTED_EDGE('',*,*,#373,.F.);
#474=ORIENTED_EDGE('',*,*,#362,.T.);
#475=ORIENTED_EDGE('',*,*,#365,.T.);
#476=ORIENTED_EDGE('',*,*,#375,.F.);
#477=ORIENTED_EDGE('',*,*,#376,.T.);
#478=ORIENTED_EDGE('',*,*,#377,.F.);
#479=ORIENTED_EDGE('',*,*,#378,.F.);
#480=ORIENTED_EDGE('',*,*,#379,.F.);
#481=ORIENTED_EDGE('',*,*,#380,.T.);
#482=ORIENTED_EDGE('',*,*,#381,.F.);
#483=ORIENTED_EDGE('',*,*,#382,.T.);
#484=ORIENTED_EDGE('',*,*,#375,.T.);
#485=ORIENTED_EDGE('',*,*,#364,.T.);
#486=ORIENTED_EDGE('',*,*,#383,.T.);
#487=ORIENTED_EDGE('',*,*,#384,.T.);
#488=ORIENTED_EDGE('',*,*,#385,.T.);
#489=ORIENTED_EDGE('',*,*,#386,.T.);
#490=ORIENTED_EDGE('',*,*,#381,.T.);
#491=ORIENTED_EDGE('',*,*,#387,.T.);
#492=ORIENTED_EDGE('',*,*,#386,.F.);
#493=ORIENTED_EDGE('',*,*,#388,.F.);
#494=ORIENTED_EDGE('',*,*,#367,.F.);
#495=ORIENTED_EDGE('',*,*,#372,.T.);
#496=ORIENTED_EDGE('',*,*,#374,.F.);
#497=ORIENTED_EDGE('',*,*,#382,.F.);
#498=ORIENTED_EDGE('',*,*,#389,.T.);
#499=ORIENTED_EDGE('',*,*,#390,.T.);
#500=ORIENTED_EDGE('',*,*,#391,.T.);
#501=ORIENTED_EDGE('',*,*,#392,.T.);
#502=ORIENTED_EDGE('',*,*,#393,.T.);
#503=ORIENTED_EDGE('',*,*,#384,.F.);
#504=ORIENTED_EDGE('',*,*,#394,.F.);
#505=ORIENTED_EDGE('',*,*,#395,.F.);
#506=ORIENTED_EDGE('',*,*,#396,.F.);
#507=ORIENTED_EDGE('',*,*,#397,.F.);
#508=ORIENTED_EDGE('',*,*,#376,.F.);
#509=ORIENTED_EDGE('',*,*,#398,.F.);
#510=ORIENTED_EDGE('',*,*,#399,.T.);
#511=ORIENTED_EDGE('',*,*,#400,.T.);
#512=ORIENTED_EDGE('',*,*,#395,.T.);
#513=ORIENTED_EDGE('',*,*,#401,.T.);
#514=ORIENTED_EDGE('',*,*,#400,.F.);
#515=ORIENTED_EDGE('',*,*,#402,.F.);
#516=ORIENTED_EDGE('',*,*,#403,.F.);
#517=ORIENTED_EDGE('',*,*,#396,.T.);
#518=ORIENTED_EDGE('',*,*,#399,.F.);
#519=ORIENTED_EDGE('',*,*,#404,.T.);
#520=ORIENTED_EDGE('',*,*,#405,.F.);
#521=ORIENTED_EDGE('',*,*,#406,.T.);
#522=ORIENTED_EDGE('',*,*,#407,.F.);
#523=ORIENTED_EDGE('',*,*,#378,.T.);
#524=ORIENTED_EDGE('',*,*,#408,.F.);
#525=ORIENTED_EDGE('',*,*,#402,.T.);
#526=ORIENTED_EDGE('',*,*,#409,.T.);
#527=ORIENTED_EDGE('',*,*,#410,.T.);
#528=ORIENTED_EDGE('',*,*,#405,.T.);
#529=ORIENTED_EDGE('',*,*,#411,.T.);
#530=ORIENTED_EDGE('',*,*,#412,.T.);
#531=ORIENTED_EDGE('',*,*,#413,.T.);
#532=ORIENTED_EDGE('',*,*,#413,.F.);
#533=ORIENTED_EDGE('',*,*,#414,.T.);
#534=ORIENTED_EDGE('',*,*,#415,.F.);
#535=ORIENTED_EDGE('',*,*,#406,.F.);
#536=ORIENTED_EDGE('',*,*,#407,.T.);
#537=ORIENTED_EDGE('',*,*,#415,.T.);
#538=ORIENTED_EDGE('',*,*,#416,.T.);
#539=ORIENTED_EDGE('',*,*,#379,.T.);
#540=ORIENTED_EDGE('',*,*,#408,.T.);
#541=ORIENTED_EDGE('',*,*,#377,.T.);
#542=ORIENTED_EDGE('',*,*,#397,.T.);
#543=ORIENTED_EDGE('',*,*,#403,.T.);
#544=ORIENTED_EDGE('',*,*,#410,.F.);
#545=ORIENTED_EDGE('',*,*,#417,.T.);
#546=ORIENTED_EDGE('',*,*,#398,.T.);
#547=ORIENTED_EDGE('',*,*,#417,.F.);
#548=ORIENTED_EDGE('',*,*,#409,.F.);
#549=ORIENTED_EDGE('',*,*,#418,.T.);
#550=ORIENTED_EDGE('',*,*,#419,.T.);
#551=ORIENTED_EDGE('',*,*,#418,.F.);
#552=ORIENTED_EDGE('',*,*,#368,.F.);
#553=ORIENTED_EDGE('',*,*,#388,.T.);
#554=ORIENTED_EDGE('',*,*,#385,.F.);
#555=ORIENTED_EDGE('',*,*,#420,.T.);
#556=ORIENTED_EDGE('',*,*,#411,.F.);
#557=ORIENTED_EDGE('',*,*,#404,.F.);
#558=ORIENTED_EDGE('',*,*,#401,.F.);
#559=ORIENTED_EDGE('',*,*,#394,.T.);
#560=ORIENTED_EDGE('',*,*,#383,.F.);
#561=ORIENTED_EDGE('',*,*,#363,.T.);
#562=ORIENTED_EDGE('',*,*,#360,.F.);
#563=ORIENTED_EDGE('',*,*,#387,.F.);
#564=ORIENTED_EDGE('',*,*,#380,.F.);
#565=ORIENTED_EDGE('',*,*,#416,.F.);
#566=ORIENTED_EDGE('',*,*,#414,.F.);
#567=ORIENTED_EDGE('',*,*,#412,.F.);
#568=ORIENTED_EDGE('',*,*,#420,.F.);
#569=ORIENTED_EDGE('',*,*,#419,.F.);
#570=ORIENTED_EDGE('',*,*,#393,.F.);
#571=ORIENTED_EDGE('',*,*,#421,.T.);
#572=ORIENTED_EDGE('',*,*,#422,.F.);
#573=ORIENTED_EDGE('',*,*,#421,.F.);
#574=ORIENTED_EDGE('',*,*,#423,.F.);
#575=ORIENTED_EDGE('',*,*,#424,.T.);
#576=ORIENTED_EDGE('',*,*,#392,.F.);
#577=ORIENTED_EDGE('',*,*,#425,.T.);
#578=ORIENTED_EDGE('',*,*,#423,.T.);
#579=ORIENTED_EDGE('',*,*,#425,.F.);
#580=ORIENTED_EDGE('',*,*,#424,.F.);
#581=ORIENTED_EDGE('',*,*,#426,.T.);
#582=ORIENTED_EDGE('',*,*,#427,.F.);
#583=ORIENTED_EDGE('',*,*,#426,.F.);
#584=ORIENTED_EDGE('',*,*,#428,.F.);
#585=ORIENTED_EDGE('',*,*,#429,.T.);
#586=ORIENTED_EDGE('',*,*,#391,.F.);
#587=ORIENTED_EDGE('',*,*,#430,.T.);
#588=ORIENTED_EDGE('',*,*,#428,.T.);
#589=ORIENTED_EDGE('',*,*,#430,.F.);
#590=ORIENTED_EDGE('',*,*,#429,.F.);
#591=ORIENTED_EDGE('',*,*,#431,.T.);
#592=ORIENTED_EDGE('',*,*,#432,.F.);
#593=ORIENTED_EDGE('',*,*,#431,.F.);
#594=ORIENTED_EDGE('',*,*,#433,.F.);
#595=ORIENTED_EDGE('',*,*,#434,.T.);
#596=ORIENTED_EDGE('',*,*,#390,.F.);
#597=ORIENTED_EDGE('',*,*,#435,.T.);
#598=ORIENTED_EDGE('',*,*,#433,.T.);
#599=ORIENTED_EDGE('',*,*,#435,.F.);
#600=ORIENTED_EDGE('',*,*,#434,.F.);
#601=ORIENTED_EDGE('',*,*,#436,.T.);
#602=ORIENTED_EDGE('',*,*,#437,.F.);
#603=ORIENTED_EDGE('',*,*,#436,.F.);
#604=ORIENTED_EDGE('',*,*,#438,.F.);
#605=ORIENTED_EDGE('',*,*,#439,.T.);
#606=ORIENTED_EDGE('',*,*,#389,.F.);
#607=ORIENTED_EDGE('',*,*,#440,.T.);
#608=ORIENTED_EDGE('',*,*,#438,.T.);
#609=ORIENTED_EDGE('',*,*,#440,.F.);
#610=ORIENTED_EDGE('',*,*,#439,.F.);
#611=ORIENTED_EDGE('',*,*,#441,.T.);
#612=ORIENTED_EDGE('',*,*,#442,.F.);
#613=ORIENTED_EDGE('',*,*,#441,.F.);
#614=ORIENTED_EDGE('',*,*,#443,.F.);
#615=ORIENTED_EDGE('',*,*,#444,.T.);
#616=ORIENTED_EDGE('',*,*,#445,.F.);
#617=ORIENTED_EDGE('',*,*,#444,.F.);
#618=ORIENTED_EDGE('',*,*,#443,.T.);
#619=ORIENTED_EDGE('',*,*,#422,.T.);
#620=ORIENTED_EDGE('',*,*,#427,.T.);
#621=ORIENTED_EDGE('',*,*,#432,.T.);
#622=ORIENTED_EDGE('',*,*,#437,.T.);
#623=ORIENTED_EDGE('',*,*,#442,.T.);
#624=ORIENTED_EDGE('',*,*,#369,.T.);
#625=ORIENTED_EDGE('',*,*,#445,.T.);
#626=TOROIDAL_SURFACE('',#678,22.,4.);
#627=ADVANCED_FACE('',(#156),#626,.F.);
#628=ADVANCED_FACE('',(#157),#141,.T.);
#629=ADVANCED_FACE('',(#158),#34,.F.);
#630=ADVANCED_FACE('',(#159),#35,.T.);
#631=ADVANCED_FACE('',(#160),#36,.F.);
#632=ADVANCED_FACE('',(#161),#142,.T.);
#633=ADVANCED_FACE('',(#162),#37,.F.);
#634=ADVANCED_FACE('',(#163),#38,.F.);
#635=ADVANCED_FACE('',(#164,#15,#16,#17,#18,#19),#143,.T.);
#636=ADVANCED_FACE('',(#165,#20),#144,.F.);
#637=ADVANCED_FACE('',(#166),#39,.T.);
#638=ADVANCED_FACE('',(#167),#145,.T.);
#639=ADVANCED_FACE('',(#168,#21,#22),#146,.T.);
#640=ADVANCED_FACE('',(#169),#40,.T.);
#641=ADVANCED_FACE('',(#170),#147,.T.);
#642=ADVANCED_FACE('',(#171),#41,.T.);
#643=ADVANCED_FACE('',(#172),#42,.T.);
#644=ADVANCED_FACE('',(#173),#43,.F.);
#645=ADVANCED_FACE('',(#174),#44,.F.);
#646=ADVANCED_FACE('',(#175),#148,.T.);
#647=ADVANCED_FACE('',(#176,#23),#149,.F.);
#648=ADVANCED_FACE('',(#177),#45,.F.);
#649=ADVANCED_FACE('',(#178,#24),#150,.F.);
#650=ADVANCED_FACE('',(#179),#46,.F.);
#651=ADVANCED_FACE('',(#180),#47,.F.);
#652=ADVANCED_FACE('',(#181,#25),#151,.F.);
#653=ADVANCED_FACE('',(#182),#48,.F.);
#654=ADVANCED_FACE('',(#183),#49,.F.);
#655=ADVANCED_FACE('',(#184,#26),#152,.F.);
#656=ADVANCED_FACE('',(#185),#50,.F.);
#657=ADVANCED_FACE('',(#186),#51,.F.);
#658=ADVANCED_FACE('',(#187,#27),#153,.F.);
#659=ADVANCED_FACE('',(#188),#52,.F.);
#660=ADVANCED_FACE('',(#189),#53,.F.);
#661=ADVANCED_FACE('',(#190),#54,.T.);
#662=ADVANCED_FACE('',(#191,#28,#29,#30,#31,#32),#154,.F.);
#663=ADVANCED_FACE('',(#192,#33),#155,.F.);
#664=CLOSED_SHELL('',(#627,#628,#629,#630,#631,#632,#633,#634,#635,#636,
#637,#638,#639,#640,#641,#642,#643,#644,#645,#646,#647,#648,#649,#650,#651,
#652,#653,#654,#655,#656,#657,#658,#659,#660,#661,#662,#663));
#665=DERIVED_UNIT_ELEMENT(#667,1.);
#666=DERIVED_UNIT_ELEMENT(#1192,-3.);
#667=(
MASS_UNIT()
NAMED_UNIT(*)
SI_UNIT(.KILO.,.GRAM.)
);
#668=DERIVED_UNIT((#665,#666));
#669=MEASURE_REPRESENTATION_ITEM('density measure',
POSITIVE_RATIO_MEASURE(7850.),#668);
#670=PROPERTY_DEFINITION_REPRESENTATION(#675,#672);
#671=PROPERTY_DEFINITION_REPRESENTATION(#676,#673);
#672=REPRESENTATION('material name',(#674),#1189);
#673=REPRESENTATION('density',(#669),#1189);
#674=DESCRIPTIVE_REPRESENTATION_ITEM('\X2\92FC\X0\','\X2\92FC\X0\');
#675=PROPERTY_DEFINITION('material property','material name',#1199);
#676=PROPERTY_DEFINITION('material property','density of part',#1199);
#677=AXIS2_PLACEMENT_3D('',#963,#758,#759);
#678=AXIS2_PLACEMENT_3D('',#964,#760,#761);
#679=AXIS2_PLACEMENT_3D('',#976,#762,#763);
#680=AXIS2_PLACEMENT_3D('',#978,#764,#765);
#681=AXIS2_PLACEMENT_3D('',#1002,#766,#767);
#682=AXIS2_PLACEMENT_3D('',#1015,#768,#769);
#683=AXIS2_PLACEMENT_3D('',#1021,#773,#774);
#684=AXIS2_PLACEMENT_3D('',#1025,#776,#777);
#685=AXIS2_PLACEMENT_3D('',#1027,#779,#780);
#686=AXIS2_PLACEMENT_3D('',#1029,#781,#782);
#687=AXIS2_PLACEMENT_3D('',#1033,#785,#786);
#688=AXIS2_PLACEMENT_3D('',#1034,#787,#788);
#689=AXIS2_PLACEMENT_3D('',#1037,#790,#791);
#690=AXIS2_PLACEMENT_3D('',#1038,#792,#793);
#691=AXIS2_PLACEMENT_3D('',#1040,#794,#795);
#692=AXIS2_PLACEMENT_3D('',#1052,#801,#802);
#693=AXIS2_PLACEMENT_3D('',#1054,#804,#805);
#694=AXIS2_PLACEMENT_3D('',#1056,#806,#807);
#695=AXIS2_PLACEMENT_3D('',#1058,#809,#810);
#696=AXIS2_PLACEMENT_3D('',#1061,#811,#812);
#697=AXIS2_PLACEMENT_3D('',#1064,#815,#816);
#698=AXIS2_PLACEMENT_3D('',#1067,#818,#819);
#699=AXIS2_PLACEMENT_3D('',#1069,#820,#821);
#700=AXIS2_PLACEMENT_3D('',#1071,#822,#823);
#701=AXIS2_PLACEMENT_3D('',#1073,#824,#825);
#702=AXIS2_PLACEMENT_3D('',#1075,#826,#827);
#703=AXIS2_PLACEMENT_3D('',#1076,#828,#829);
#704=AXIS2_PLACEMENT_3D('',#1080,#831,#832);
#705=AXIS2_PLACEMENT_3D('',#1083,#834,#835);
#706=AXIS2_PLACEMENT_3D('',#1085,#836,#837);
#707=AXIS2_PLACEMENT_3D('',#1086,#838,#839);
#708=AXIS2_PLACEMENT_3D('',#1089,#840,#841);
#709=AXIS2_PLACEMENT_3D('',#1092,#844,#845);
#710=AXIS2_PLACEMENT_3D('',#1096,#848,#849);
#711=AXIS2_PLACEMENT_3D('',#1100,#851,#852);
#712=AXIS2_PLACEMENT_3D('',#1103,#854,#855);
#713=AXIS2_PLACEMENT_3D('',#1104,#856,#857);
#714=AXIS2_PLACEMENT_3D('',#1106,#858,#859);
#715=AXIS2_PLACEMENT_3D('',#1108,#860,#861);
#716=AXIS2_PLACEMENT_3D('',#1109,#862,#863);
#717=AXIS2_PLACEMENT_3D('',#1113,#865,#866);
#718=AXIS2_PLACEMENT_3D('',#1115,#868,#869);
#719=AXIS2_PLACEMENT_3D('',#1119,#872,#873);
#720=AXIS2_PLACEMENT_3D('',#1120,#874,#875);
#721=AXIS2_PLACEMENT_3D('',#1121,#876,#877);
#722=AXIS2_PLACEMENT_3D('',#1122,#878,#879);
#723=AXIS2_PLACEMENT_3D('',#1124,#881,#882);
#724=AXIS2_PLACEMENT_3D('',#1127,#884,#885);
#725=AXIS2_PLACEMENT_3D('',#1128,#886,#887);
#726=AXIS2_PLACEMENT_3D('',#1130,#889,#890);
#727=AXIS2_PLACEMENT_3D('',#1131,#891,#892);
#728=AXIS2_PLACEMENT_3D('',#1134,#894,#895);
#729=AXIS2_PLACEMENT_3D('',#1135,#896,#897);
#730=AXIS2_PLACEMENT_3D('',#1137,#898,#899);
#731=AXIS2_PLACEMENT_3D('',#1139,#900,#901);
#732=AXIS2_PLACEMENT_3D('',#1140,#902,#903);
#733=AXIS2_PLACEMENT_3D('',#1142,#905,#906);
#734=AXIS2_PLACEMENT_3D('',#1145,#908,#909);
#735=AXIS2_PLACEMENT_3D('',#1146,#910,#911);
#736=AXIS2_PLACEMENT_3D('',#1148,#912,#913);
#737=AXIS2_PLACEMENT_3D('',#1150,#914,#915);
#738=AXIS2_PLACEMENT_3D('',#1151,#916,#917);
#739=AXIS2_PLACEMENT_3D('',#1153,#919,#920);
#740=AXIS2_PLACEMENT_3D('',#1156,#922,#923);
#741=AXIS2_PLACEMENT_3D('',#1157,#924,#925);
#742=AXIS2_PLACEMENT_3D('',#1159,#926,#927);
#743=AXIS2_PLACEMENT_3D('',#1161,#928,#929);
#744=AXIS2_PLACEMENT_3D('',#1162,#930,#931);
#745=AXIS2_PLACEMENT_3D('',#1164,#933,#934);
#746=AXIS2_PLACEMENT_3D('',#1167,#936,#937);
#747=AXIS2_PLACEMENT_3D('',#1168,#938,#939);
#748=AXIS2_PLACEMENT_3D('',#1170,#940,#941);
#749=AXIS2_PLACEMENT_3D('',#1172,#942,#943);
#750=AXIS2_PLACEMENT_3D('',#1173,#944,#945);
#751=AXIS2_PLACEMENT_3D('',#1175,#947,#948);
#752=AXIS2_PLACEMENT_3D('',#1178,#950,#951);
#753=AXIS2_PLACEMENT_3D('',#1179,#952,#953);
#754=AXIS2_PLACEMENT_3D('',#1181,#954,#955);
#755=AXIS2_PLACEMENT_3D('',#1184,#957,#958);
#756=AXIS2_PLACEMENT_3D('',#1185,#959,#960);
#757=AXIS2_PLACEMENT_3D('',#1186,#961,#962);
#758=DIRECTION('axis',(0.,0.,1.));
#759=DIRECTION('refdir',(1.,0.,0.));
#760=DIRECTION('center_axis',(-1.,0.,0.));
#761=DIRECTION('ref_axis',(0.,0.,1.));
#762=DIRECTION('center_axis',(1.,0.,0.));
#763=DIRECTION('ref_axis',(0.,-1.22464679914735E-16,1.));
#764=DIRECTION('center_axis',(1.,0.,0.));
#765=DIRECTION('ref_axis',(0.,-1.22464679914735E-16,1.));
#766=DIRECTION('center_axis',(-1.,0.,0.));
#767=DIRECTION('ref_axis',(0.,-1.22464679914735E-16,1.));
#768=DIRECTION('center_axis',(-1.,0.,0.));
#769=DIRECTION('ref_axis',(0.,0.,1.));
#770=DIRECTION('',(0.,0.,-1.));
#771=DIRECTION('',(0.,-1.,0.));
#772=DIRECTION('',(0.,0.,1.));
#773=DIRECTION('center_axis',(-1.,0.,0.));
#774=DIRECTION('ref_axis',(0.,0.928708781050335,-0.370809924354784));
#775=DIRECTION('',(-1.,0.,0.));
#776=DIRECTION('center_axis',(1.,0.,0.));
#777=DIRECTION('ref_axis',(0.,0.928708781050335,-0.370809924354784));
#778=DIRECTION('',(-1.,0.,0.));
#779=DIRECTION('center_axis',(-1.,0.,0.));
#780=DIRECTION('ref_axis',(0.,0.,-1.));
#781=DIRECTION('center_axis',(-1.,0.,0.));
#782=DIRECTION('ref_axis',(0.,0.,-1.));
#783=DIRECTION('',(1.,0.,0.));
#784=DIRECTION('',(1.,0.,0.));
#785=DIRECTION('center_axis',(1.,0.,0.));
#786=DIRECTION('ref_axis',(0.,0.,-1.));
#787=DIRECTION('center_axis',(1.,0.,0.));
#788=DIRECTION('ref_axis',(0.,-0.928708781050335,-0.370809924354784));
#789=DIRECTION('',(-1.,0.,0.));
#790=DIRECTION('center_axis',(1.,0.,0.));
#791=DIRECTION('ref_axis',(0.,-0.928708781050335,-0.370809924354784));
#792=DIRECTION('center_axis',(0.,1.,0.));
#793=DIRECTION('ref_axis',(-1.,0.,0.));
#794=DIRECTION('center_axis',(0.,1.,0.));
#795=DIRECTION('ref_axis',(0.707106781186546,0.,0.707106781186549));
#796=DIRECTION('',(-1.,0.,0.));
#797=DIRECTION('',(0.,0.,-1.));
#798=DIRECTION('',(-1.,0.,0.));
#799=DIRECTION('',(0.,0.,1.));
#800=DIRECTION('',(-1.,0.,0.));
#801=DIRECTION('center_axis',(0.,1.,0.));
#802=DIRECTION('ref_axis',(-0.707106781186548,0.,0.707106781186547));
#803=DIRECTION('',(0.,0.,-1.));
#804=DIRECTION('center_axis',(0.,-1.,0.));
#805=DIRECTION('ref_axis',(0.707106781186546,0.,0.707106781186549));
#806=DIRECTION('center_axis',(0.,-1.,0.));
#807=DIRECTION('ref_axis',(0.707106781186546,0.,0.707106781186549));
#808=DIRECTION('',(0.,1.,0.));
#809=DIRECTION('center_axis',(0.,1.,0.));
#810=DIRECTION('ref_axis',(-0.707106781186548,0.,0.707106781186547));
#811=DIRECTION('center_axis',(0.,-1.,0.));
#812=DIRECTION('ref_axis',(-0.707106781186548,0.,0.707106781186547));
#813=DIRECTION('',(0.,1.,0.));
#814=DIRECTION('',(0.,-1.,0.));
#815=DIRECTION('center_axis',(1.,0.,0.));
#816=DIRECTION('ref_axis',(0.,0.,-1.));
#817=DIRECTION('',(0.,0.,1.));
#818=DIRECTION('center_axis',(-1.,0.,0.));
#819=DIRECTION('ref_axis',(0.,1.,0.));
#820=DIRECTION('center_axis',(-1.,0.,0.));
#821=DIRECTION('ref_axis',(0.,1.,0.));
#822=DIRECTION('center_axis',(-1.,0.,0.));
#823=DIRECTION('ref_axis',(0.,1.,0.));
#824=DIRECTION('center_axis',(-1.,0.,0.));
#825=DIRECTION('ref_axis',(0.,1.,0.));
#826=DIRECTION('center_axis',(-1.,0.,0.));
#827=DIRECTION('ref_axis',(0.,1.,0.));
#828=DIRECTION('center_axis',(0.,0.,1.));
#829=DIRECTION('ref_axis',(1.,0.,0.));
#830=DIRECTION('',(1.,0.,0.));
#831=DIRECTION('center_axis',(0.,0.,1.));
#832=DIRECTION('ref_axis',(-0.707106781186547,-0.707106781186548,0.));
#833=DIRECTION('',(0.,-1.,0.));
#834=DIRECTION('center_axis',(0.,0.,1.));
#835=DIRECTION('ref_axis',(-0.707106781186547,0.707106781186548,0.));
#836=DIRECTION('center_axis',(0.,0.,-1.));
#837=DIRECTION('ref_axis',(1.,0.,0.));
#838=DIRECTION('center_axis',(0.,0.,1.));
#839=DIRECTION('ref_axis',(-0.707106781186547,-0.707106781186548,0.));
#840=DIRECTION('center_axis',(0.,0.,-1.));
#841=DIRECTION('ref_axis',(-0.707106781186547,-0.707106781186548,0.));
#842=DIRECTION('',(0.,0.,-1.));
#843=DIRECTION('',(0.,0.,1.));
#844=DIRECTION('center_axis',(-1.,0.,0.));
#845=DIRECTION('ref_axis',(0.,-1.,0.));
#846=DIRECTION('',(0.,-1.,0.));
#847=DIRECTION('',(0.,0.,1.));
#848=DIRECTION('center_axis',(0.,0.,1.));
#849=DIRECTION('ref_axis',(1.,0.,0.));
#850=DIRECTION('',(1.,0.,0.));
#851=DIRECTION('center_axis',(0.,0.,-1.));
#852=DIRECTION('ref_axis',(0.707106781186547,-0.707106781186548,0.));
#853=DIRECTION('',(0.,1.,0.));
#854=DIRECTION('center_axis',(0.,0.,-1.));
#855=DIRECTION('ref_axis',(0.707106781186547,0.707106781186548,0.));
#856=DIRECTION('center_axis',(0.,0.,-1.));
#857=DIRECTION('ref_axis',(-0.707106781186547,0.707106781186548,0.));
#858=DIRECTION('center_axis',(0.,0.,-1.));
#859=DIRECTION('ref_axis',(1.,0.,0.));
#860=DIRECTION('center_axis',(0.,0.,-1.));
#861=DIRECTION('ref_axis',(1.,0.,0.));
#862=DIRECTION('center_axis',(0.,0.,1.));
#863=DIRECTION('ref_axis',(0.707106781186547,-0.707106781186548,0.));
#864=DIRECTION('',(0.,0.,-1.));
#865=DIRECTION('center_axis',(0.,0.,1.));
#866=DIRECTION('ref_axis',(0.707106781186547,-0.707106781186548,0.));
#867=DIRECTION('',(0.,0.,1.));
#868=DIRECTION('center_axis',(1.,0.,0.));
#869=DIRECTION('ref_axis',(0.,1.,0.));
#870=DIRECTION('',(0.,1.,0.));
#871=DIRECTION('',(0.,0.,-1.));
#872=DIRECTION('center_axis',(0.,0.,1.));
#873=DIRECTION('ref_axis',(0.707106781186547,0.707106781186548,0.));
#874=DIRECTION('center_axis',(0.,0.,1.));
#875=DIRECTION('ref_axis',(0.707106781186547,0.707106781186548,0.));
#876=DIRECTION('center_axis',(0.,0.,1.));
#877=DIRECTION('ref_axis',(-0.707106781186547,0.707106781186548,0.));
#878=DIRECTION('center_axis',(0.,0.,1.));
#879=DIRECTION('ref_axis',(1.,0.,0.));
#880=DIRECTION('',(0.,0.,-1.));
#881=DIRECTION('center_axis',(0.,0.,1.));
#882=DIRECTION('ref_axis',(1.,0.,0.));
#883=DIRECTION('',(0.,0.,-1.));
#884=DIRECTION('center_axis',(0.,0.,-1.));
#885=DIRECTION('ref_axis',(1.,0.,0.));
#886=DIRECTION('center_axis',(0.,-1.,0.));
#887=DIRECTION('ref_axis',(1.,0.,0.));
#888=DIRECTION('',(1.,0.,0.));
#889=DIRECTION('center_axis',(0.,0.,1.));
#890=DIRECTION('ref_axis',(1.,0.,0.));
#891=DIRECTION('center_axis',(-1.,0.,0.));
#892=DIRECTION('ref_axis',(0.,1.,0.));
#893=DIRECTION('',(-1.,0.,0.));
#894=DIRECTION('center_axis',(1.,0.,0.));
#895=DIRECTION('ref_axis',(0.,1.,0.));
#896=DIRECTION('center_axis',(-1.,0.,0.));
#897=DIRECTION('ref_axis',(0.,1.,0.));
#898=DIRECTION('center_axis',(-1.,0.,0.));
#899=DIRECTION('ref_axis',(0.,1.,0.));
#900=DIRECTION('center_axis',(-1.,0.,0.));
#901=DIRECTION('ref_axis',(0.,1.,0.));
#902=DIRECTION('center_axis',(-1.,0.,0.));
#903=DIRECTION('ref_axis',(0.,1.,0.));
#904=DIRECTION('',(-1.,0.,0.));
#905=DIRECTION('center_axis',(-1.,0.,0.));
#906=DIRECTION('ref_axis',(0.,1.,0.));
#907=DIRECTION('',(-1.,0.,0.));
#908=DIRECTION('center_axis',(1.,0.,0.));
#909=DIRECTION('ref_axis',(0.,1.,0.));
#910=DIRECTION('center_axis',(-1.,0.,0.));
#911=DIRECTION('ref_axis',(0.,1.,0.));
#912=DIRECTION('center_axis',(-1.,0.,0.));
#913=DIRECTION('ref_axis',(0.,1.,0.));
#914=DIRECTION('center_axis',(-1.,0.,0.));
#915=DIRECTION('ref_axis',(0.,1.,0.));
#916=DIRECTION('center_axis',(-1.,0.,0.));
#917=DIRECTION('ref_axis',(0.,1.,0.));
#918=DIRECTION('',(-1.,0.,0.));
#919=DIRECTION('center_axis',(-1.,0.,0.));
#920=DIRECTION('ref_axis',(0.,1.,0.));
#921=DIRECTION('',(-1.,0.,0.));
#922=DIRECTION('center_axis',(1.,0.,0.));
#923=DIRECTION('ref_axis',(0.,1.,0.));
#924=DIRECTION('center_axis',(-1.,0.,0.));
#925=DIRECTION('ref_axis',(0.,1.,0.));
#926=DIRECTION('center_axis',(-1.,0.,0.));
#927=DIRECTION('ref_axis',(0.,1.,0.));
#928=DIRECTION('center_axis',(-1.,0.,0.));
#929=DIRECTION('ref_axis',(0.,1.,0.));
#930=DIRECTION('center_axis',(-1.,0.,0.));
#931=DIRECTION('ref_axis',(0.,1.,0.));
#932=DIRECTION('',(-1.,0.,0.));
#933=DIRECTION('center_axis',(-1.,0.,0.));
#934=DIRECTION('ref_axis',(0.,1.,0.));
#935=DIRECTION('',(-1.,0.,0.));
#936=DIRECTION('center_axis',(1.,0.,0.));
#937=DIRECTION('ref_axis',(0.,1.,0.));
#938=DIRECTION('center_axis',(-1.,0.,0.));
#939=DIRECTION('ref_axis',(0.,1.,0.));
#940=DIRECTION('center_axis',(-1.,0.,0.));
#941=DIRECTION('ref_axis',(0.,1.,0.));
#942=DIRECTION('center_axis',(-1.,0.,0.));
#943=DIRECTION('ref_axis',(0.,1.,0.));
#944=DIRECTION('center_axis',(-1.,0.,0.));
#945=DIRECTION('ref_axis',(0.,1.,0.));
#946=DIRECTION('',(-1.,0.,0.));
#947=DIRECTION('center_axis',(-1.,0.,0.));
#948=DIRECTION('ref_axis',(0.,1.,0.));
#949=DIRECTION('',(-1.,0.,0.));
#950=DIRECTION('center_axis',(1.,0.,0.));
#951=DIRECTION('ref_axis',(0.,1.,0.));
#952=DIRECTION('center_axis',(-1.,0.,0.));
#953=DIRECTION('ref_axis',(0.,0.,-1.));
#954=DIRECTION('center_axis',(-1.,0.,0.));
#955=DIRECTION('ref_axis',(0.,0.,-1.));
#956=DIRECTION('',(1.,0.,0.));
#957=DIRECTION('center_axis',(1.,0.,0.));
#958=DIRECTION('ref_axis',(0.,0.,-1.));
#959=DIRECTION('center_axis',(1.,0.,0.));
#960=DIRECTION('ref_axis',(0.,0.,-1.));
#961=DIRECTION('center_axis',(1.,0.,0.));
#962=DIRECTION('ref_axis',(0.,0.,-1.));
#963=CARTESIAN_POINT('',(0.,0.,0.));
#964=CARTESIAN_POINT('Origin',(-22.,0.,0.));
#965=CARTESIAN_POINT('',(-22.,13.05,12.3974795825603));
#966=CARTESIAN_POINT('',(-19.8911352673688,12.5,13.7749773139662));
#967=CARTESIAN_POINT('Ctrl Pts',(-19.8911352673688,12.5,13.7749773139662));
#968=CARTESIAN_POINT('Ctrl Pts',(-20.0620931675643,12.4999999999993,13.6317441765971));
#969=CARTESIAN_POINT('Ctrl Pts',(-20.2433900283383,12.5153611154476,13.4890080295978));
#970=CARTESIAN_POINT('Ctrl Pts',(-20.9357955430913,12.6262201028264,12.9806102589909));
#971=CARTESIAN_POINT('Ctrl Pts',(-21.4682592353322,12.8050827488915,12.6568115772038));
#972=CARTESIAN_POINT('Ctrl Pts',(-21.9941023237129,13.0472772433009,12.4003499079927));
#973=CARTESIAN_POINT('Ctrl Pts',(-21.9970511627451,13.0486375582038,12.3989137341813));
#974=CARTESIAN_POINT('Ctrl Pts',(-22.,13.05,12.3974795825603));
#975=CARTESIAN_POINT('',(-22.,2.20436423846524E-15,18.));
#976=CARTESIAN_POINT('Origin',(-22.,0.,0.));
#977=CARTESIAN_POINT('',(-22.,-13.05,12.3974795825603));
#978=CARTESIAN_POINT('Origin',(-22.,0.,0.));
#979=CARTESIAN_POINT('',(-19.8911352673688,-12.5,13.7749773139662));
#980=CARTESIAN_POINT('Ctrl Pts',(-22.,-13.05,12.3974795825603));
#981=CARTESIAN_POINT('Ctrl Pts',(-21.9970511627459,-13.0486375582042,12.398913734181));
#982=CARTESIAN_POINT('Ctrl Pts',(-21.9941023237119,-13.0472772433013,12.4003499079923));
#983=CARTESIAN_POINT('Ctrl Pts',(-21.4682592355782,-12.8050827489662,12.6568115771244));
#984=CARTESIAN_POINT('Ctrl Pts',(-20.9357955431157,-12.6262201028303,12.980610258973));
#985=CARTESIAN_POINT('Ctrl Pts',(-20.2433900283382,-12.5153611154476,13.4890080295979));
#986=CARTESIAN_POINT('Ctrl Pts',(-20.0620931675642,-12.4999999999993,13.6317441765972));
#987=CARTESIAN_POINT('Ctrl Pts',(-19.8911352673688,-12.5,13.7749773139662));
#988=CARTESIAN_POINT('',(-18.,-12.5,18.1038669902317));
#989=CARTESIAN_POINT('Ctrl Pts',(-19.8911352673688,-12.5,13.7749773139661));
#990=CARTESIAN_POINT('Ctrl Pts',(-19.6759137845724,-12.5,13.9552956740714));
#991=CARTESIAN_POINT('Ctrl Pts',(-19.4797111475422,-12.5,14.15782110771));
#992=CARTESIAN_POINT('Ctrl Pts',(-19.1164732750182,-12.5,14.5940495735915));
#993=CARTESIAN_POINT('Ctrl Pts',(-18.9236761350126,-12.5,14.8738127560915));
#994=CARTESIAN_POINT('Ctrl Pts',(-18.5937595509771,-12.5,15.4649676464462));
#995=CARTESIAN_POINT('Ctrl Pts',(-18.456435350693,-12.5,15.7762450589915));
#996=CARTESIAN_POINT('Ctrl Pts',(-18.2435707572556,-12.5,16.3752229698998));
#997=CARTESIAN_POINT('Ctrl Pts',(-18.1504750414133,-12.5,16.7203852515699));
#998=CARTESIAN_POINT('Ctrl Pts',(-18.0286560283767,-12.5,17.4218213457149));
#999=CARTESIAN_POINT('Ctrl Pts',(-18.,-12.5,17.7781068391621));
#1000=CARTESIAN_POINT('Ctrl Pts',(-18.,-12.5,18.1038669902317));
#1001=CARTESIAN_POINT('',(-18.,12.5,18.1038669902317));
#1002=CARTESIAN_POINT('Origin',(-18.,0.,0.));
#1003=CARTESIAN_POINT('Ctrl Pts',(-18.,12.5,18.1038669902317));
#1004=CARTESIAN_POINT('Ctrl Pts',(-18.,12.5,17.7781068391621));
#1005=CARTESIAN_POINT('Ctrl Pts',(-18.0286560283767,12.5,17.4218213457149));
#1006=CARTESIAN_POINT('Ctrl Pts',(-18.1504750414133,12.5,16.7203852515699));
#1007=CARTESIAN_POINT('Ctrl Pts',(-18.2435707572556,12.5,16.3752229698998));
#1008=CARTESIAN_POINT('Ctrl Pts',(-18.456435350693,12.5,15.7762450589915));
#1009=CARTESIAN_POINT('Ctrl Pts',(-18.5937595509771,12.5,15.4649676464462));
#1010=CARTESIAN_POINT('Ctrl Pts',(-18.9236761350126,12.5,14.8738127560915));
#1011=CARTESIAN_POINT('Ctrl Pts',(-19.1164732750182,12.5,14.5940495735915));
#1012=CARTESIAN_POINT('Ctrl Pts',(-19.4797111475421,12.5,14.1578211077101));
#1013=CARTESIAN_POINT('Ctrl Pts',(-19.6759137845721,12.5,13.9552956740717));
#1014=CARTESIAN_POINT('Ctrl Pts',(-19.8911352673683,12.5,13.7749773139665));
#1015=CARTESIAN_POINT('Origin',(-18.,0.,12.));
#1016=CARTESIAN_POINT('',(-18.,-12.5,32.));
#1017=CARTESIAN_POINT('',(-18.,-12.5,33.));
#1018=CARTESIAN_POINT('',(-18.,12.5,32.));
#1019=CARTESIAN_POINT('',(-18.,0.,32.));
#1020=CARTESIAN_POINT('',(-18.,12.5,33.));
#1021=CARTESIAN_POINT('Origin',(-13.,-14.5,13.7749773139559));
#1022=CARTESIAN_POINT('',(-13.,-13.05,12.3974795825603));
#1023=CARTESIAN_POINT('',(-13.,-13.05,12.3974795825603));
#1024=CARTESIAN_POINT('',(-13.,-12.5,13.7749773139559));
#1025=CARTESIAN_POINT('Origin',(-13.,-14.5,13.7749773139559));
#1026=CARTESIAN_POINT('',(-13.,-12.5,13.7749773139559));
#1027=CARTESIAN_POINT('Origin',(-13.,0.,0.));
#1028=CARTESIAN_POINT('',(-23.,-2.20436423846524E-15,18.));
#1029=CARTESIAN_POINT('Origin',(-23.,0.,0.));
#1030=CARTESIAN_POINT('',(-13.,2.20436423846524E-15,18.));
#1031=CARTESIAN_POINT('',(-13.,13.05,12.3974795825603));
#1032=CARTESIAN_POINT('',(-13.,13.05,12.3974795825603));
#1033=CARTESIAN_POINT('Origin',(-13.,0.,0.));
#1034=CARTESIAN_POINT('Origin',(-13.,14.5,13.7749773139559));
#1035=CARTESIAN_POINT('',(-13.,12.5,13.7749773139559));
#1036=CARTESIAN_POINT('',(-13.,12.5,13.7749773139559));
#1037=CARTESIAN_POINT('Origin',(-13.,14.5,13.7749773139559));
#1038=CARTESIAN_POINT('Origin',(30.,12.5,33.));
#1039=CARTESIAN_POINT('',(-19.,12.5,33.));
#1040=CARTESIAN_POINT('Origin',(-19.,12.5,32.));
#1041=CARTESIAN_POINT('',(-27.,12.5,33.));
#1042=CARTESIAN_POINT('',(30.,12.5,33.));
#1043=CARTESIAN_POINT('',(-27.,12.5,40.));
#1044=CARTESIAN_POINT('',(-27.,12.5,33.));
#1045=CARTESIAN_POINT('',(27.,12.5,40.));
#1046=CARTESIAN_POINT('',(30.,12.5,40.));
#1047=CARTESIAN_POINT('',(27.,12.5,33.));
#1048=CARTESIAN_POINT('',(27.,12.5,33.));
#1049=CARTESIAN_POINT('',(-9.,12.5,33.));
#1050=CARTESIAN_POINT('',(30.,12.5,33.));
#1051=CARTESIAN_POINT('',(-13.,12.5,29.));
#1052=CARTESIAN_POINT('Origin',(-9.,12.5,29.));
#1053=CARTESIAN_POINT('',(-13.,12.5,12.));
#1054=CARTESIAN_POINT('Origin',(-19.,0.,32.));
#1055=CARTESIAN_POINT('',(-19.,-12.5,33.));
#1056=CARTESIAN_POINT('Origin',(-19.,-12.5,32.));
#1057=CARTESIAN_POINT('',(-19.,0.,33.));
#1058=CARTESIAN_POINT('Origin',(-9.,0.,29.));
#1059=CARTESIAN_POINT('',(-9.,-12.5,33.));
#1060=CARTESIAN_POINT('',(-13.,-12.5,29.));
#1061=CARTESIAN_POINT('Origin',(-9.,-12.5,29.));
#1062=CARTESIAN_POINT('',(-13.,0.,29.));
#1063=CARTESIAN_POINT('',(-9.,0.,33.));
#1064=CARTESIAN_POINT('Origin',(-13.,0.,0.));
#1065=CARTESIAN_POINT('',(-13.,-12.5,12.));
#1066=CARTESIAN_POINT('',(-13.,1.94974746830583,-4.94974746830583));
#1067=CARTESIAN_POINT('Origin',(-13.,4.94974746830583,-4.94974746830583));
#1068=CARTESIAN_POINT('',(-13.,1.94974746830583,4.94974746830583));
#1069=CARTESIAN_POINT('Origin',(-13.,4.94974746830583,4.94974746830583));
#1070=CARTESIAN_POINT('',(-13.,-7.94974746830583,-4.94974746830583));
#1071=CARTESIAN_POINT('Origin',(-13.,-4.94974746830583,-4.94974746830583));
#1072=CARTESIAN_POINT('',(-13.,-7.94974746830583,4.94974746830583));
#1073=CARTESIAN_POINT('Origin',(-13.,-4.94974746830583,4.94974746830583));
#1074=CARTESIAN_POINT('',(-13.,-3.,3.67394039744206E-16));
#1075=CARTESIAN_POINT('Origin',(-13.,0.,0.));
#1076=CARTESIAN_POINT('Origin',(0.,0.,33.));
#1077=CARTESIAN_POINT('',(-27.,-12.5,33.));
#1078=CARTESIAN_POINT('',(-30.,-12.5,33.));
#1079=CARTESIAN_POINT('',(-30.,-9.5,33.));
#1080=CARTESIAN_POINT('Origin',(-27.,-9.5,33.));
#1081=CARTESIAN_POINT('',(-30.,9.5,33.));
#1082=CARTESIAN_POINT('',(-30.,12.5,33.));
#1083=CARTESIAN_POINT('Origin',(-27.,9.5,33.));
#1084=CARTESIAN_POINT('',(-24.2,-2.0818995585505E-16,33.));
#1085=CARTESIAN_POINT('Origin',(-22.5,0.,33.));
#1086=CARTESIAN_POINT('Origin',(-27.,-9.5,33.));
#1087=CARTESIAN_POINT('',(-27.,-12.5,40.));
#1088=CARTESIAN_POINT('',(-30.,-9.5,40.));
#1089=CARTESIAN_POINT('Origin',(-27.,-9.5,40.));
#1090=CARTESIAN_POINT('',(-30.,-9.5,33.));
#1091=CARTESIAN_POINT('',(-27.,-12.5,33.));
#1092=CARTESIAN_POINT('Origin',(-30.,12.5,33.));
#1093=CARTESIAN_POINT('',(-30.,9.5,40.));
#1094=CARTESIAN_POINT('',(-30.,12.5,40.));
#1095=CARTESIAN_POINT('',(-30.,9.5,33.));
#1096=CARTESIAN_POINT('Origin',(0.,0.,40.));
#1097=CARTESIAN_POINT('',(27.,-12.5,40.));
#1098=CARTESIAN_POINT('',(-30.,-12.5,40.));
#1099=CARTESIAN_POINT('',(30.,-9.5,40.));
#1100=CARTESIAN_POINT('Origin',(27.,-9.5,40.));
#1101=CARTESIAN_POINT('',(30.,9.5,40.));
#1102=CARTESIAN_POINT('',(30.,-12.5,40.));
#1103=CARTESIAN_POINT('Origin',(27.,9.5,40.));
#1104=CARTESIAN_POINT('Origin',(-27.,9.5,40.));
#1105=CARTESIAN_POINT('',(20.8,-2.0818995585505E-16,40.));
#1106=CARTESIAN_POINT('Origin',(22.5,0.,40.));
#1107=CARTESIAN_POINT('',(-24.2,-2.0818995585505E-16,40.));
#1108=CARTESIAN_POINT('Origin',(-22.5,0.,40.));
#1109=CARTESIAN_POINT('Origin',(27.,-9.5,33.));
#1110=CARTESIAN_POINT('',(27.,-12.5,33.));
#1111=CARTESIAN_POINT('',(27.,-12.5,33.));
#1112=CARTESIAN_POINT('',(30.,-9.5,33.));
#1113=CARTESIAN_POINT('Origin',(27.,-9.5,33.));
#1114=CARTESIAN_POINT('',(30.,-9.5,33.));
#1115=CARTESIAN_POINT('Origin',(30.,-12.5,33.));
#1116=CARTESIAN_POINT('',(30.,9.5,33.));
#1117=CARTESIAN_POINT('',(30.,-12.5,33.));
#1118=CARTESIAN_POINT('',(30.,9.5,33.));
#1119=CARTESIAN_POINT('Origin',(27.,9.5,33.));
#1120=CARTESIAN_POINT('Origin',(27.,9.5,33.));
#1121=CARTESIAN_POINT('Origin',(-27.,9.5,33.));
#1122=CARTESIAN_POINT('Origin',(-22.5,0.,33.));
#1123=CARTESIAN_POINT('',(-24.2,-2.0818995585505E-16,33.));
#1124=CARTESIAN_POINT('Origin',(22.5,0.,33.));
#1125=CARTESIAN_POINT('',(20.8,-2.0818995585505E-16,33.));
#1126=CARTESIAN_POINT('',(20.8,-2.0818995585505E-16,33.));
#1127=CARTESIAN_POINT('Origin',(22.5,0.,33.));
#1128=CARTESIAN_POINT('Origin',(-30.,-12.5,33.));
#1129=CARTESIAN_POINT('',(-30.,-12.5,33.));
#1130=CARTESIAN_POINT('Origin',(0.,0.,33.));
#1131=CARTESIAN_POINT('Origin',(-21.14,0.,0.));
#1132=CARTESIAN_POINT('',(-27.8,-3.,-3.67394039744206E-16));
#1133=CARTESIAN_POINT('',(-21.14,-3.,3.67394039744206E-16));
#1134=CARTESIAN_POINT('Origin',(-27.8,0.,0.));
#1135=CARTESIAN_POINT('Origin',(-16.,-4.94974746830583,4.94974746830583));
#1136=CARTESIAN_POINT('',(-16.,-7.94974746830583,4.94974746830583));
#1137=CARTESIAN_POINT('Origin',(-16.,-4.94974746830583,4.94974746830583));
#1138=CARTESIAN_POINT('',(-16.,-6.54974746830583,4.94974746830583));
#1139=CARTESIAN_POINT('Origin',(-16.,-4.94974746830583,4.94974746830583));
#1140=CARTESIAN_POINT('Origin',(-14.5,-4.94974746830583,4.94974746830583));
#1141=CARTESIAN_POINT('',(-14.5,-7.94974746830583,4.94974746830583));
#1142=CARTESIAN_POINT('Origin',(-21.14,-4.94974746830583,4.94974746830583));
#1143=CARTESIAN_POINT('',(-27.8,-6.54974746830583,4.94974746830583));
#1144=CARTESIAN_POINT('',(-21.14,-6.54974746830583,4.94974746830583));
#1145=CARTESIAN_POINT('Origin',(-27.8,-4.94974746830583,4.94974746830583));
#1146=CARTESIAN_POINT('Origin',(-16.,-4.94974746830583,-4.94974746830583));
#1147=CARTESIAN_POINT('',(-16.,-7.94974746830583,-4.94974746830583));
#1148=CARTESIAN_POINT('Origin',(-16.,-4.94974746830583,-4.94974746830583));
#1149=CARTESIAN_POINT('',(-16.,-6.54974746830583,-4.94974746830583));
#1150=CARTESIAN_POINT('Origin',(-16.,-4.94974746830583,-4.94974746830583));
#1151=CARTESIAN_POINT('Origin',(-14.5,-4.94974746830583,-4.94974746830583));
#1152=CARTESIAN_POINT('',(-14.5,-7.94974746830583,-4.94974746830583));
#1153=CARTESIAN_POINT('Origin',(-21.14,-4.94974746830583,-4.94974746830583));
#1154=CARTESIAN_POINT('',(-27.8,-6.54974746830583,-4.94974746830583));
#1155=CARTESIAN_POINT('',(-21.14,-6.54974746830583,-4.94974746830583));
#1156=CARTESIAN_POINT('Origin',(-27.8,-4.94974746830583,-4.94974746830583));
#1157=CARTESIAN_POINT('Origin',(-16.,4.94974746830583,4.94974746830583));
#1158=CARTESIAN_POINT('',(-16.,1.94974746830583,4.94974746830583));
#1159=CARTESIAN_POINT('Origin',(-16.,4.94974746830583,4.94974746830583));
#1160=CARTESIAN_POINT('',(-16.,3.34974746830583,4.94974746830583));
#1161=CARTESIAN_POINT('Origin',(-16.,4.94974746830583,4.94974746830583));
#1162=CARTESIAN_POINT('Origin',(-14.5,4.94974746830583,4.94974746830583));
#1163=CARTESIAN_POINT('',(-14.5,1.94974746830583,4.94974746830583));
#1164=CARTESIAN_POINT('Origin',(-21.14,4.94974746830583,4.94974746830583));
#1165=CARTESIAN_POINT('',(-27.8,3.34974746830583,4.94974746830583));
#1166=CARTESIAN_POINT('',(-21.14,3.34974746830583,4.94974746830583));
#1167=CARTESIAN_POINT('Origin',(-27.8,4.94974746830583,4.94974746830583));
#1168=CARTESIAN_POINT('Origin',(-16.,4.94974746830583,-4.94974746830583));
#1169=CARTESIAN_POINT('',(-16.,1.94974746830583,-4.94974746830583));
#1170=CARTESIAN_POINT('Origin',(-16.,4.94974746830583,-4.94974746830583));
#1171=CARTESIAN_POINT('',(-16.,3.34974746830583,-4.94974746830583));
#1172=CARTESIAN_POINT('Origin',(-16.,4.94974746830583,-4.94974746830583));
#1173=CARTESIAN_POINT('Origin',(-14.5,4.94974746830583,-4.94974746830583));
#1174=CARTESIAN_POINT('',(-14.5,1.94974746830583,-4.94974746830583));
#1175=CARTESIAN_POINT('Origin',(-21.14,4.94974746830583,-4.94974746830583));
#1176=CARTESIAN_POINT('',(-27.8,3.34974746830583,-4.94974746830583));
#1177=CARTESIAN_POINT('',(-21.14,3.34974746830583,-4.94974746830583));
#1178=CARTESIAN_POINT('Origin',(-27.8,4.94974746830583,-4.94974746830583));
#1179=CARTESIAN_POINT('Origin',(-23.,0.,0.));
#1180=CARTESIAN_POINT('',(-27.8,-1.16341445918999E-15,9.5));
#1181=CARTESIAN_POINT('Origin',(-27.8,0.,0.));
#1182=CARTESIAN_POINT('',(-23.,-1.16341445918999E-15,9.5));
#1183=CARTESIAN_POINT('',(-23.,1.16341445918999E-15,9.5));
#1184=CARTESIAN_POINT('Origin',(-23.,0.,0.));
#1185=CARTESIAN_POINT('Origin',(-27.8,0.,0.));
#1186=CARTESIAN_POINT('Origin',(-23.,0.,0.));
#1187=UNCERTAINTY_MEASURE_WITH_UNIT(LENGTH_MEASURE(0.01),#1191,
'DISTANCE_ACCURACY_VALUE',
'Maximum model space distance between geometric entities at asserted c
onnectivities');
#1188=UNCERTAINTY_MEASURE_WITH_UNIT(LENGTH_MEASURE(0.01),#1191,
'DISTANCE_ACCURACY_VALUE',
'Maximum model space distance between geometric entities at asserted c
onnectivities');
#1189=(
GEOMETRIC_REPRESENTATION_CONTEXT(3)
GLOBAL_UNCERTAINTY_ASSIGNED_CONTEXT((#1187))
GLOBAL_UNIT_ASSIGNED_CONTEXT((#1191,#1193,#1194))
REPRESENTATION_CONTEXT('','3D')
);
#1190=(
GEOMETRIC_REPRESENTATION_CONTEXT(3)
GLOBAL_UNCERTAINTY_ASSIGNED_CONTEXT((#1188))
GLOBAL_UNIT_ASSIGNED_CONTEXT((#1191,#1193,#1194))
REPRESENTATION_CONTEXT('','3D')
);
#1191=(
LENGTH_UNIT()
NAMED_UNIT(*)
SI_UNIT(.MILLI.,.METRE.)
);
#1192=(
LENGTH_UNIT()
NAMED_UNIT(*)
SI_UNIT($,.METRE.)
);
#1193=(
NAMED_UNIT(*)
PLANE_ANGLE_UNIT()
SI_UNIT($,.RADIAN.)
);
#1194=(
NAMED_UNIT(*)
SI_UNIT($,.STERADIAN.)
SOLID_ANGLE_UNIT()
);
#1195=SHAPE_DEFINITION_REPRESENTATION(#1196,#1197);
#1196=PRODUCT_DEFINITION_SHAPE('',$,#1199);
#1197=SHAPE_REPRESENTATION('',(#677),#1189);
#1198=PRODUCT_DEFINITION_CONTEXT('part definition',#1203,'design');
#1199=PRODUCT_DEFINITION('2026-10-04-09-41-25-050',
'head_cam_mount_d435i',#1200,#1198);
#1200=PRODUCT_DEFINITION_FORMATION('',$,#1205);
#1201=PRODUCT_RELATED_PRODUCT_CATEGORY('head_cam_mount_d435i',
'head_cam_mount_d435i',(#1205));
#1202=APPLICATION_PROTOCOL_DEFINITION('international standard',
'automotive_design',2009,#1203);
#1203=APPLICATION_CONTEXT(
'Core Data for Automotive Mechanical Design Process');
#1204=PRODUCT_CONTEXT('part definition',#1203,'mechanical');
#1205=PRODUCT('2026-10-04-09-41-25-050','head_cam_mount_d435i',$,(#1204));
#1206=PRESENTATION_STYLE_ASSIGNMENT((#1208));
#1207=PRESENTATION_STYLE_ASSIGNMENT((#1209));
#1208=SURFACE_STYLE_USAGE(.BOTH.,#1210);
#1209=SURFACE_STYLE_USAGE(.BOTH.,#1211);
#1210=SURFACE_SIDE_STYLE('',(#1212));
#1211=SURFACE_SIDE_STYLE('',(#1213));
#1212=SURFACE_STYLE_FILL_AREA(#1214);
#1213=SURFACE_STYLE_FILL_AREA(#1215);
#1214=FILL_AREA_STYLE('\X2\92FC\X0\ - \X2\30B530C630F3\X0\',(#1216));
#1215=FILL_AREA_STYLE('mount_orange',(#1217));
#1216=FILL_AREA_STYLE_COLOUR('\X2\92FC\X0\ - \X2\30B530C630F3\X0\',#1218);
#1217=FILL_AREA_STYLE_COLOUR('mount_orange',#1219);
#1218=COLOUR_RGB('\X2\92FC\X0\ - \X2\30B530C630F3\X0\',0.627450980392157,
0.627450980392157,0.627450980392157);
#1219=COLOUR_RGB('mount_orange',0.941176470588235,0.470588235294118,0.0784313725490196);
ENDSEC;
END-ISO-10303-21;
